<svg width="254" height="73" fill="none" xmlns="http://www.w3.org/2000/svg"><path d="M38.728 15.478c-.384.276-.876.474-1.476.594a9.07 9.07 0 0 1-1.818.18 6.785 6.785 0 0 1-2.16-.342 4.756 4.756 0 0 1-1.782-1.134c-.516-.528-.93-1.206-1.242-2.034-.3-.84-.45-1.854-.45-3.042 0-1.236.168-2.268.504-3.096.348-.84.792-1.512 1.332-2.016a4.84 4.84 0 0 1 1.836-1.098 6.241 6.241 0 0 1 2.016-.342c.72 0 1.326.048 1.818.144.504.096.918.21 1.242.342l-.486 2.088a3.574 3.574 0 0 0-.99-.288 8.78 8.78 0 0 0-1.368-.09c-.996 0-1.8.354-2.412 1.062-.6.708-.9 1.806-.9 3.294 0 .648.072 1.242.216 1.782.144.528.36.984.648 1.368.3.372.666.666 1.098.882.444.204.954.306 1.53.306.54 0 .996-.054 1.368-.162.372-.108.696-.246.972-.414l.504 2.016ZM40.25 3.4h7.47v2.196h-5.003V8.53h4.554v2.196h-4.554v3.078h5.094V16h-7.56V3.4ZM60.707 18.25h-1.746l-.27-2.25h-8.1l-.27 2.25h-1.746v-4.446h1.332c.084-.132.222-.426.414-.882.192-.456.384-1.098.576-1.926.192-.84.354-1.884.486-3.132.132-1.26.192-2.748.18-4.464h7.542v10.404h1.602v4.446Zm-4.068-4.446V5.596h-2.79c-.072 2.136-.246 3.888-.522 5.256-.264 1.356-.534 2.34-.81 2.952h4.122ZM61.318 9.7c0-2.1.462-3.714 1.386-4.842.924-1.14 2.244-1.71 3.96-1.71.9 0 1.686.156 2.358.468.672.312 1.23.756 1.674 1.332.444.576.774 1.266.99 2.07.216.804.324 1.698.324 2.682 0 2.1-.468 3.72-1.404 4.86-.924 1.128-2.238 1.692-3.942 1.692-.912 0-1.704-.156-2.376-.468a4.442 4.442 0 0 1-1.674-1.332c-.432-.576-.756-1.266-.972-2.07-.216-.804-.324-1.698-.324-2.682Zm2.592 0c0 .636.054 1.224.162 1.764a4.7 4.7 0 0 0 .486 1.368c.228.384.516.684.864.9.348.216.762.324 1.242.324.876 0 1.554-.342 2.034-1.026.48-.684.72-1.794.72-3.33 0-.612-.054-1.182-.162-1.71a4.595 4.595 0 0 0-.468-1.386 2.411 2.411 0 0 0-.846-.918c-.348-.228-.774-.342-1.278-.342-.876 0-1.554.354-2.034 1.062-.48.696-.72 1.794-.72 3.294ZM80.846 10.726h-4.608V16h-2.466V3.4h2.466v5.13h4.608V3.4h2.466V16h-2.466v-5.274ZM91.707 13.21h-3.87L86.883 16h-2.466l4.536-12.69h1.818L95.307 16h-2.592l-1.008-2.79Zm-3.24-1.98h2.7l-.936-2.808-.378-1.98h-.09l-.378 1.998-.918 2.79ZM100.248 9.772h10.836v2.07h-10.836v-2.07ZM124.317 10.726h-4.608V16h-2.466V3.4h2.466v5.13h4.608V3.4h2.466V16h-2.466v-5.274ZM128.968 3.4h7.47v2.196h-5.004V8.53h4.554v2.196h-4.554v3.078h5.094V16h-7.56V3.4ZM138.372 3.4h7.758v2.196h-5.292v2.628c.204-.036.45-.072.738-.108a8.135 8.135 0 0 1 2.736.144c.564.132 1.044.354 1.44.666.408.3.726.702.954 1.206.228.492.342 1.098.342 1.818 0 .708-.12 1.326-.36 1.854a3.307 3.307 0 0 1-1.008 1.314c-.432.348-.96.612-1.584.792-.612.18-1.302.27-2.07.27-.204 0-.462-.006-.774-.018a28.564 28.564 0 0 1-1.98-.144 7.878 7.878 0 0 1-.9-.144V3.4Zm3.834 10.746c.312 0 .6-.036.864-.108.276-.084.516-.204.72-.36.204-.168.366-.378.486-.63s.18-.558.18-.918c0-.432-.066-.78-.198-1.044a1.494 1.494 0 0 0-.54-.612 1.92 1.92 0 0 0-.792-.306 5.702 5.702 0 0 0-.936-.072 4.6 4.6 0 0 0-.63.054 4.137 4.137 0 0 0-.522.072v3.834c.132.036.33.06.594.072.276.012.534.018.774.018ZM148.242 9.7c0-2.1.462-3.714 1.386-4.842.924-1.14 2.244-1.71 3.96-1.71.9 0 1.686.156 2.358.468.672.312 1.23.756 1.674 1.332.444.576.774 1.266.99 2.07.216.804.324 1.698.324 2.682 0 2.1-.468 3.72-1.404 4.86-.924 1.128-2.238 1.692-3.942 1.692-.912 0-1.704-.156-2.376-.468a4.442 4.442 0 0 1-1.674-1.332c-.432-.576-.756-1.266-.972-2.07-.216-.804-.324-1.698-.324-2.682Zm2.592 0c0 .636.054 1.224.162 1.764a4.7 4.7 0 0 0 .486 1.368c.228.384.516.684.864.9.348.216.762.324 1.242.324.876 0 1.554-.342 2.034-1.026.48-.684.72-1.794.72-3.33 0-.612-.054-1.182-.162-1.71a4.595 4.595 0 0 0-.468-1.386 2.411 2.411 0 0 0-.846-.918c-.348-.228-.774-.342-1.278-.342-.876 0-1.554.354-2.034 1.062-.48.696-.72 1.794-.72 3.294ZM166.985 5.596h-2.682c-.048 1.14-.102 2.178-.162 3.114-.06.936-.144 1.782-.252 2.538a13.103 13.103 0 0 1-.396 1.98 5.902 5.902 0 0 1-.648 1.494 2.72 2.72 0 0 1-.576.684c-.204.18-.42.324-.648.432a2.51 2.51 0 0 1-.684.216c-.216.048-.42.072-.612.072-.276 0-.51-.024-.702-.072a2.38 2.38 0 0 1-.54-.18l.27-2.124a1.421 1.421 0 0 0 .432.072c.192 0 .378-.048.558-.144.192-.096.354-.258.486-.486.18-.264.336-.648.468-1.152.132-.516.246-1.17.342-1.962.108-.792.192-1.734.252-2.826.06-1.104.102-2.388.126-3.852h7.434V16h-2.466V5.596ZM171.612 3.4h2.466v4.518c.06-.012.156-.024.288-.036a5.14 5.14 0 0 1 .45-.054l.504-.036c.168-.012.324-.018.468-.018.588 0 1.158.06 1.71.18s1.038.336 1.458.648c.432.3.774.714 1.026 1.242.252.516.378 1.176.378 1.98 0 1.44-.45 2.526-1.35 3.258-.888.732-2.166 1.098-3.834 1.098-.168 0-.396-.006-.684-.018-.276 0-.582-.012-.918-.036a32.422 32.422 0 0 1-1.026-.09 6.89 6.89 0 0 1-.936-.162V3.4Zm3.69 10.584c.336 0 .654-.03.954-.09.3-.072.564-.186.792-.342.228-.168.402-.384.522-.648.132-.264.198-.588.198-.972 0-.408-.072-.738-.216-.99a1.494 1.494 0 0 0-.54-.612 1.925 1.925 0 0 0-.774-.288 5.92 5.92 0 0 0-.936-.072c-.084 0-.186.006-.306.018l-.36.036c-.12.012-.234.03-.342.054a1.974 1.974 0 0 0-.216.036v3.762c.132.036.306.066.522.09.228.012.462.018.702.018ZM181.86 16V3.4h2.466v10.404h2.97V3.4h2.466v10.404h2.97V3.4h2.466V16H181.86ZM196.968 9.7c0-2.1.462-3.714 1.386-4.842.924-1.14 2.244-1.71 3.96-1.71.9 0 1.686.156 2.358.468.672.312 1.23.756 1.674 1.332.444.576.774 1.266.99 2.07.216.804.324 1.698.324 2.682 0 2.1-.468 3.72-1.404 4.86-.924 1.128-2.238 1.692-3.942 1.692-.912 0-1.704-.156-2.376-.468a4.442 4.442 0 0 1-1.674-1.332c-.432-.576-.756-1.266-.972-2.07-.216-.804-.324-1.698-.324-2.682Zm2.592 0c0 .636.054 1.224.162 1.764a4.7 4.7 0 0 0 .486 1.368c.228.384.516.684.864.9.348.216.762.324 1.242.324.876 0 1.554-.342 2.034-1.026.48-.684.72-1.794.72-3.33 0-.612-.054-1.182-.162-1.71a4.595 4.595 0 0 0-.468-1.386 2.411 2.411 0 0 0-.846-.918c-.348-.228-.774-.342-1.278-.342-.876 0-1.554.354-2.034 1.062-.48.696-.72 1.794-.72 3.294ZM216.767 9.016l.144-1.638h-.09l-.846 1.692-4.698 6.93h-1.854V3.4h2.466v6.858l-.18 1.692h.108l.882-1.746 4.698-6.804h1.836V16h-2.466V9.016Zm-3.51-8.748c.048.384.186.66.414.828.24.168.546.252.918.252.804 0 1.248-.354 1.332-1.062l1.998.306c-.132.756-.48 1.308-1.044 1.656-.552.348-1.32.522-2.304.522-.492 0-.942-.036-1.35-.108a3.935 3.935 0 0 1-1.08-.342c-.3-.168-.552-.39-.756-.666-.192-.276-.312-.618-.36-1.026l2.232-.36ZM45.687 32.596h-4.86V43h-2.466V30.4h7.326v2.196ZM45.823 36.7c0-2.1.462-3.714 1.386-4.842.924-1.14 2.244-1.71 3.96-1.71.9 0 1.686.156 2.358.468.672.312 1.23.756 1.674 1.332.444.576.774 1.266.99 2.07.216.804.324 1.698.324 2.682 0 2.1-.468 3.72-1.404 4.86-.924 1.128-2.238 1.692-3.942 1.692-.912 0-1.704-.156-2.376-.468a4.442 4.442 0 0 1-1.674-1.332c-.432-.576-.756-1.266-.972-2.07-.216-.804-.324-1.698-.324-2.682Zm2.592 0c0 .636.054 1.224.162 1.764a4.7 4.7 0 0 0 .486 1.368c.228.384.516.684.864.9.348.216.762.324 1.242.324.876 0 1.554-.342 2.034-1.026.48-.684.72-1.794.72-3.33 0-.612-.054-1.182-.162-1.71a4.595 4.595 0 0 0-.468-1.386 2.411 2.411 0 0 0-.846-.918c-.348-.228-.774-.342-1.278-.342-.876 0-1.554.354-2.034 1.062-.48.696-.72 1.794-.72 3.294ZM58.277 30.526a15.477 15.477 0 0 1 1.656-.216c.612-.06 1.218-.09 1.818-.09.624 0 1.248.054 1.872.162a4.48 4.48 0 0 1 1.71.612c.504.3.912.726 1.224 1.278.324.54.486 1.248.486 2.124 0 .792-.138 1.464-.414 2.016-.276.54-.642.984-1.098 1.332a4.42 4.42 0 0 1-1.566.756 6.856 6.856 0 0 1-1.8.234h-.702l-.432-.036a3.039 3.039 0 0 1-.288-.036V43h-2.466V30.526Zm3.672 1.818a6.2 6.2 0 0 0-.684.036c-.216.012-.39.03-.522.054v4.086c.048.012.12.024.216.036l.306.036h.54c.324 0 .642-.03.954-.09.324-.06.612-.168.864-.324.252-.168.45-.396.594-.684.156-.288.234-.666.234-1.134 0-.396-.072-.72-.216-.972a1.717 1.717 0 0 0-.576-.63 2.122 2.122 0 0 0-.792-.324 4.67 4.67 0 0 0-.918-.09ZM67.989 36.7c0-2.1.462-3.714 1.386-4.842.924-1.14 2.244-1.71 3.96-1.71.9 0 1.686.156 2.358.468.672.312 1.23.756 1.674 1.332.444.576.774 1.266.99 2.07.216.804.324 1.698.324 2.682 0 2.1-.468 3.72-1.404 4.86-.924 1.128-2.238 1.692-3.942 1.692-.912 0-1.704-.156-2.376-.468a4.442 4.442 0 0 1-1.674-1.332c-.432-.576-.756-1.266-.972-2.07-.216-.804-.324-1.698-.324-2.682Zm2.592 0c0 .636.054 1.224.162 1.764a4.7 4.7 0 0 0 .486 1.368c.228.384.516.684.864.9.348.216.762.324 1.242.324.876 0 1.554-.342 2.034-1.026.48-.684.72-1.794.72-3.33 0-.612-.054-1.182-.162-1.71a4.595 4.595 0 0 0-.468-1.386 2.411 2.411 0 0 0-.846-.918c-.348-.228-.774-.342-1.278-.342-.876 0-1.554.354-2.034 1.062-.48.696-.72 1.794-.72 3.294ZM91.161 45.25h-1.746l-.27-2.25h-8.1l-.27 2.25H79.03v-4.446h1.332c.084-.132.222-.426.414-.882.192-.456.384-1.098.576-1.926.192-.84.354-1.884.486-3.132.132-1.26.192-2.748.18-4.464h7.542v10.404h1.602v4.446Zm-4.068-4.446v-8.208h-2.79c-.072 2.136-.246 3.888-.522 5.256-.264 1.356-.534 2.34-.81 2.952h4.122ZM91.772 36.7c0-2.1.462-3.714 1.386-4.842.924-1.14 2.244-1.71 3.96-1.71.9 0 1.686.156 2.358.468.672.312 1.23.756 1.674 1.332.444.576.774 1.266.99 2.07.216.804.324 1.698.324 2.682 0 2.1-.468 3.72-1.404 4.86-.924 1.128-2.238 1.692-3.942 1.692-.912 0-1.704-.156-2.376-.468a4.442 4.442 0 0 1-1.674-1.332c-.432-.576-.756-1.266-.972-2.07-.216-.804-.324-1.698-.324-2.682Zm2.592 0c0 .636.054 1.224.162 1.764a4.7 4.7 0 0 0 .486 1.368c.228.384.516.684.864.9.348.216.762.324 1.242.324.876 0 1.554-.342 2.034-1.026.48-.684.72-1.794.72-3.33 0-.612-.054-1.182-.162-1.71a4.595 4.595 0 0 0-.468-1.386 2.411 2.411 0 0 0-.846-.918c-.348-.228-.774-.342-1.278-.342-.876 0-1.554.354-2.034 1.062-.48.696-.72 1.794-.72 3.294ZM107.34 37.618h-.648V43h-2.466V30.4h2.466v5.58l.576-.252 3.474-5.328h2.808l-3.672 5.292-.972.684 1.008.702L114.108 43h-3.042l-3.726-5.382ZM128.121 33.334c0 .312-.042.624-.126.936a2.53 2.53 0 0 1-.378.864c-.18.252-.414.48-.702.684a3.18 3.18 0 0 1-1.044.432v.108c.36.06.702.162 1.026.306.324.144.606.342.846.594.24.252.426.558.558.918.144.36.215.786.215 1.278 0 .648-.138 1.212-.414 1.692a3.413 3.413 0 0 1-1.116 1.152c-.456.3-.977.522-1.565.666a7.623 7.623 0 0 1-1.819.216h-.791c-.312 0-.654-.012-1.026-.036-.36-.012-.732-.036-1.116-.072a8.003 8.003 0 0 1-1.026-.162V30.49a19.956 19.956 0 0 1 1.728-.198 27.895 27.895 0 0 1 2.087-.072c.588 0 1.159.048 1.711.144.564.084 1.062.24 1.494.468a2.72 2.72 0 0 1 1.062.954c.264.408.396.924.396 1.548Zm-4.5 7.812c.3 0 .588-.036.864-.108.288-.072.539-.18.755-.324.216-.156.391-.348.523-.576.132-.228.197-.498.197-.81 0-.396-.077-.708-.233-.936a1.52 1.52 0 0 0-.612-.522 2.404 2.404 0 0 0-.847-.252 8.142 8.142 0 0 0-.935-.054h-1.315v3.474c.06.024.157.042.289.054l.414.036a6.1 6.1 0 0 1 .468.018h.432Zm-.81-5.454c.168 0 .36-.006.576-.018.228-.012.414-.03.558-.054.456-.144.846-.36 1.17-.648.336-.288.504-.666.504-1.134 0-.312-.06-.57-.18-.774a1.348 1.348 0 0 0-.486-.486 1.923 1.923 0 0 0-.666-.252 4.226 4.226 0 0 0-.792-.072c-.312 0-.601.006-.865.018a5.48 5.48 0 0 0-.612.054v3.366h.793ZM140.319 40.21h-3.87l-.954 2.79h-2.466l4.536-12.69h1.818L143.919 43h-2.592l-1.008-2.79Zm-3.24-1.98h2.7l-.936-2.808-.378-1.98h-.09l-.378 1.998-.918 2.79ZM145.008 30.526a15.477 15.477 0 0 1 1.656-.216c.612-.06 1.218-.09 1.818-.09.624 0 1.248.054 1.872.162a4.48 4.48 0 0 1 1.71.612c.504.3.912.726 1.224 1.278.324.54.486 1.248.486 2.124 0 .792-.138 1.464-.414 2.016-.276.54-.642.984-1.098 1.332a4.42 4.42 0 0 1-1.566.756 6.856 6.856 0 0 1-1.8.234h-.702l-.432-.036a3.039 3.039 0 0 1-.288-.036V43h-2.466V30.526Zm3.672 1.818a6.2 6.2 0 0 0-.684.036c-.216.012-.39.03-.522.054v4.086c.048.012.12.024.216.036l.306.036h.54c.324 0 .642-.03.954-.09.324-.06.612-.168.864-.324.252-.168.45-.396.594-.684.156-.288.234-.666.234-1.134 0-.396-.072-.72-.216-.972a1.717 1.717 0 0 0-.576-.63 2.122 2.122 0 0 0-.792-.324 4.67 4.67 0 0 0-.918-.09ZM162.653 36.016l.144-1.638h-.09l-.846 1.692-4.698 6.93h-1.854V30.4h2.466v6.858l-.18 1.692h.108l.882-1.746 4.698-6.804h1.836V43h-2.466v-6.984ZM168.377 37.42v-1.926h1.296l.486-.036a4.34 4.34 0 0 0 .378-.072c.42-.096.78-.264 1.08-.504.3-.252.45-.588.45-1.008 0-.576-.186-.966-.558-1.17-.36-.216-.84-.324-1.44-.324-.54 0-1.044.072-1.512.216-.468.144-.822.282-1.062.414l-.63-2.088c.132-.072.318-.15.558-.234.252-.084.534-.162.846-.234a8.853 8.853 0 0 1 2.178-.27c.528 0 1.044.048 1.548.144.504.096.954.264 1.35.504.396.24.714.564.954.972.24.396.36.906.36 1.53s-.168 1.2-.504 1.728c-.324.528-.852.912-1.584 1.152v.09c.78.156 1.386.492 1.818 1.008.444.516.666 1.206.666 2.07 0 .684-.138 1.272-.414 1.764-.276.48-.642.876-1.098 1.188-.444.312-.96.54-1.548.684a6.99 6.99 0 0 1-1.8.234 10.85 10.85 0 0 1-2.16-.198c-.648-.132-1.146-.288-1.494-.468l.63-2.142c.276.132.672.27 1.188.414.516.132 1.128.198 1.836.198.264 0 .528-.03.792-.09a2.42 2.42 0 0 0 .738-.324 1.78 1.78 0 0 0 .522-.594c.132-.24.198-.528.198-.864 0-.564-.21-.99-.63-1.278-.42-.288-1.17-.444-2.25-.468a4.272 4.272 0 0 0-.324-.018h-.864ZM176.375 36.7c0-2.1.462-3.714 1.386-4.842.924-1.14 2.244-1.71 3.96-1.71.9 0 1.686.156 2.358.468.672.312 1.23.756 1.674 1.332.444.576.774 1.266.99 2.07.216.804.324 1.698.324 2.682 0 2.1-.468 3.72-1.404 4.86-.924 1.128-2.238 1.692-3.942 1.692-.912 0-1.704-.156-2.376-.468a4.442 4.442 0 0 1-1.674-1.332c-.432-.576-.756-1.266-.972-2.07-.216-.804-.324-1.698-.324-2.682Zm2.592 0c0 .636.054 1.224.162 1.764a4.7 4.7 0 0 0 .486 1.368c.228.384.516.684.864.9.348.216.762.324 1.242.324.876 0 1.554-.342 2.034-1.026.48-.684.72-1.794.72-3.33 0-.612-.054-1.182-.162-1.71a4.595 4.595 0 0 0-.468-1.386 2.411 2.411 0 0 0-.846-.918c-.348-.228-.774-.342-1.278-.342-.876 0-1.554.354-2.034 1.062-.48.696-.72 1.794-.72 3.294ZM195.904 37.726h-4.608V43h-2.466V30.4h2.466v5.13h4.608V30.4h2.466V43h-2.466v-5.274ZM200.555 30.4h7.47v2.196h-5.004v2.934h4.554v2.196h-4.554v3.078h5.094V43h-7.56V30.4ZM209.635 41.848c0-.408.132-.732.396-.972.276-.24.612-.36 1.008-.36.504 0 .9.168 1.188.504.288.336.432.78.432 1.332 0 .54-.084 1.002-.252 1.386-.168.396-.378.72-.63.972-.24.264-.504.468-.792.612-.276.156-.528.27-.756.342l-.684-.972c.324-.132.606-.348.846-.648.24-.3.372-.618.396-.954-.276.036-.54-.048-.792-.252-.24-.204-.36-.534-.36-.99ZM2.035 64.42v-1.926h1.296l.486-.036a4.34 4.34 0 0 0 .378-.072c.42-.096.78-.264 1.08-.504.3-.252.45-.588.45-1.008 0-.576-.186-.966-.558-1.17-.36-.216-.84-.324-1.44-.324-.54 0-1.044.072-1.512.216-.468.144-.822.282-1.062.414l-.63-2.088c.132-.072.318-.15.558-.234.252-.084.534-.162.846-.234a8.853 8.853 0 0 1 2.178-.27c.528 0 1.044.048 1.548.144.504.096.954.264 1.35.504.396.24.714.564.954.972.24.396.36.906.36 1.53s-.168 1.2-.504 1.728c-.324.528-.852.912-1.584 1.152v.09c.78.156 1.386.492 1.818 1.008.444.516.666 1.206.666 2.07 0 .684-.138 1.272-.414 1.764-.276.48-.642.876-1.098 1.188-.444.312-.96.54-1.548.684a6.99 6.99 0 0 1-1.8.234 10.85 10.85 0 0 1-2.16-.198c-.648-.132-1.146-.288-1.494-.468l.63-2.142c.276.132.672.27 1.188.414.516.132 1.128.198 1.836.198.264 0 .528-.03.792-.09a2.42 2.42 0 0 0 .738-.324 1.78 1.78 0 0 0 .522-.594c.132-.24.198-.528.198-.864 0-.564-.21-.99-.63-1.278-.42-.288-1.17-.444-2.25-.468a4.272 4.272 0 0 0-.324-.018h-.864ZM16.64 67.21h-3.87L11.816 70H9.35l4.536-12.69h1.818L20.24 70h-2.592l-1.008-2.79Zm-3.24-1.98h2.7l-.936-2.808-.378-1.98h-.09l-.378 1.998-.918 2.79ZM29.297 69.478c-.384.276-.875.474-1.476.594a9.07 9.07 0 0 1-1.818.18 6.785 6.785 0 0 1-2.16-.342 4.756 4.756 0 0 1-1.782-1.134c-.515-.528-.93-1.206-1.241-2.034-.3-.84-.45-1.854-.45-3.042 0-1.236.168-2.268.503-3.096.348-.84.793-1.512 1.332-2.016a4.84 4.84 0 0 1 1.837-1.098 6.241 6.241 0 0 1 2.015-.342c.72 0 1.327.048 1.819.144.503.096.918.21 1.241.342l-.486 2.088a3.574 3.574 0 0 0-.99-.288 8.78 8.78 0 0 0-1.367-.09c-.997 0-1.8.354-2.413 1.062-.6.708-.9 1.806-.9 3.294 0 .648.073 1.242.216 1.782.145.528.36.984.649 1.368.3.372.665.666 1.098.882.444.204.954.306 1.53.306.54 0 .995-.054 1.367-.162.372-.108.696-.246.973-.414l.503 2.016ZM37.584 59.596h-2.682c-.048 1.14-.102 2.178-.162 3.114-.06.936-.144 1.782-.252 2.538a13.103 13.103 0 0 1-.396 1.98 5.902 5.902 0 0 1-.648 1.494 2.72 2.72 0 0 1-.576.684c-.204.18-.42.324-.648.432a2.51 2.51 0 0 1-.684.216c-.216.048-.42.072-.612.072-.276 0-.51-.024-.702-.072a2.38 2.38 0 0 1-.54-.18l.27-2.124a1.421 1.421 0 0 0 .432.072c.192 0 .378-.048.558-.144.192-.096.354-.258.486-.486.18-.264.336-.648.468-1.152.132-.516.246-1.17.342-1.962.108-.792.192-1.734.252-2.826.06-1.104.102-2.388.126-3.852h7.434V70h-2.466V59.596ZM46.423 62.962l.36 1.638h.108l.288-1.692 1.89-5.508h2.538l-3.348 8.712a20.65 20.65 0 0 1-.774 1.782c-.24.504-.504.924-.792 1.26-.276.324-.588.57-.936.738-.348.156-.756.234-1.224.234-.396 0-.72-.03-.972-.09-.24-.048-.504-.162-.792-.342l.63-1.998c.204.108.39.174.558.198.168.024.348.036.54.036.564 0 .96-.444 1.188-1.332L40.969 57.4h2.898l2.556 5.562Z" fill="#000"/><path d="M57.116 57.4h2.34v5.598l.63-.252 2.61-5.346h2.772l-2.934 5.526-.846.612 1.026.756L66.026 70h-2.97l-2.898-5.472h-.702V70h-2.34v-5.688l-.648.252L53.57 70h-2.88l3.294-5.526.972-.702-.936-.666-3.078-5.706h2.862l2.61 5.382h.702V57.4ZM74.34 63.016l.144-1.638h-.09l-.846 1.692L68.85 70h-1.854V57.4h2.466v6.858l-.18 1.692h.108l.882-1.746L74.97 57.4h1.836V70H74.34v-6.984ZM87.462 60.334c0 .312-.042.624-.126.936a2.53 2.53 0 0 1-.378.864c-.18.252-.414.48-.702.684a3.18 3.18 0 0 1-1.044.432v.108c.36.06.702.162 1.026.306.324.144.606.342.846.594.24.252.426.558.558.918.144.36.216.786.216 1.278 0 .648-.138 1.212-.414 1.692a3.413 3.413 0 0 1-1.116 1.152c-.456.3-.978.522-1.566.666a7.615 7.615 0 0 1-1.818.216h-.792c-.312 0-.654-.012-1.026-.036-.36-.012-.732-.036-1.116-.072a8.003 8.003 0 0 1-1.026-.162V57.49a19.956 19.956 0 0 1 1.728-.198 27.895 27.895 0 0 1 2.088-.072c.588 0 1.158.048 1.71.144.564.084 1.062.24 1.494.468a2.72 2.72 0 0 1 1.062.954c.264.408.396.924.396 1.548Zm-4.5 7.812c.3 0 .588-.036.864-.108a2.4 2.4 0 0 0 .756-.324c.216-.156.39-.348.522-.576.132-.228.198-.498.198-.81 0-.396-.078-.708-.234-.936a1.52 1.52 0 0 0-.612-.522 2.399 2.399 0 0 0-.846-.252 8.16 8.16 0 0 0-.936-.054H81.36v3.474c.06.024.156.042.288.054l.414.036a6.1 6.1 0 0 1 .468.018h.432Zm-.81-5.454c.168 0 .36-.006.576-.018.228-.012.414-.03.558-.054.456-.144.846-.36 1.17-.648.336-.288.504-.666.504-1.134 0-.312-.06-.57-.18-.774a1.348 1.348 0 0 0-.486-.486 1.923 1.923 0 0 0-.666-.252 4.226 4.226 0 0 0-.792-.072c-.312 0-.6.006-.864.018a5.48 5.48 0 0 0-.612.054v3.366h.792ZM95.83 67.21h-3.87L91.004 70H88.54l4.536-12.69h1.818L99.43 70h-2.592l-1.008-2.79Zm-3.24-1.98h2.7l-.937-2.808-.378-1.98h-.09l-.378 1.998-.918 2.79ZM102.984 62.53h1.674c.156-1.716.66-3.042 1.512-3.978.852-.936 2.046-1.404 3.582-1.404.912 0 1.692.156 2.34.468a4.071 4.071 0 0 1 1.584 1.332c.42.576.726 1.266.918 2.07.204.804.306 1.698.306 2.682 0 2.1-.432 3.72-1.296 4.86-.864 1.128-2.148 1.692-3.852 1.692-.792 0-1.494-.132-2.106-.396a4.313 4.313 0 0 1-1.53-1.116c-.42-.48-.75-1.062-.99-1.746a9.257 9.257 0 0 1-.468-2.268h-1.674V70h-2.466V57.4h2.466v5.13Zm4.194 1.17c0 .636.042 1.224.126 1.764.096.528.24.984.432 1.368.204.384.468.684.792.9.336.216.744.324 1.224.324.876 0 1.518-.342 1.926-1.026.42-.684.63-1.794.63-3.33a10.9 10.9 0 0 0-.126-1.71 4.585 4.585 0 0 0-.396-1.386 2.203 2.203 0 0 0-.792-.918c-.324-.228-.738-.342-1.242-.342-.864 0-1.512.354-1.944 1.062-.42.696-.63 1.794-.63 3.294ZM116.672 70V57.4h2.466v10.404h2.97V57.4h2.466v10.404h2.97V57.4h2.466v10.404h1.656v4.446h-1.728l-.27-2.25h-12.996ZM140.416 63.016l.144-1.638h-.09l-.846 1.692-4.698 6.93h-1.854V57.4h2.466v6.858l-.18 1.692h.108l.882-1.746 4.698-6.804h1.836V70h-2.466v-6.984ZM152.404 63.016l.144-1.638h-.09l-.846 1.692-4.698 6.93h-1.854V57.4h2.466v6.858l-.18 1.692h.108l.882-1.746 4.698-6.804h1.836V70h-2.466v-6.984Zm-3.51-8.748c.048.384.186.66.414.828.24.168.546.252.918.252.804 0 1.248-.354 1.332-1.062l1.998.306c-.132.756-.48 1.308-1.044 1.656-.552.348-1.32.522-2.304.522-.492 0-.942-.036-1.35-.108a3.935 3.935 0 0 1-1.08-.342c-.3-.168-.552-.39-.756-.666-.192-.276-.312-.618-.36-1.026l2.232-.36ZM161.601 57.4h7.758v2.196h-5.292v2.628c.204-.036.45-.072.738-.108a8.135 8.135 0 0 1 2.736.144c.564.132 1.044.354 1.44.666.408.3.726.702.954 1.206.228.492.342 1.098.342 1.818 0 .708-.12 1.326-.36 1.854a3.307 3.307 0 0 1-1.008 1.314c-.432.348-.96.612-1.584.792-.612.18-1.302.27-2.07.27-.204 0-.462-.006-.774-.018a28.564 28.564 0 0 1-1.98-.144 7.878 7.878 0 0 1-.9-.144V57.4Zm3.834 10.746c.312 0 .6-.036.864-.108.276-.084.516-.204.72-.36.204-.168.366-.378.486-.63s.18-.558.18-.918c0-.432-.066-.78-.198-1.044a1.494 1.494 0 0 0-.54-.612 1.92 1.92 0 0 0-.792-.306 5.702 5.702 0 0 0-.936-.072 4.6 4.6 0 0 0-.63.054 4.137 4.137 0 0 0-.522.072v3.834c.132.036.33.06.594.072.276.012.534.018.774.018ZM171.471 63.7c0-2.1.462-3.714 1.386-4.842.924-1.14 2.244-1.71 3.96-1.71.9 0 1.686.156 2.358.468.672.312 1.23.756 1.674 1.332.444.576.774 1.266.99 2.07.216.804.324 1.698.324 2.682 0 2.1-.468 3.72-1.404 4.86-.924 1.128-2.238 1.692-3.942 1.692-.912 0-1.704-.156-2.376-.468a4.442 4.442 0 0 1-1.674-1.332c-.432-.576-.756-1.266-.972-2.07-.216-.804-.324-1.698-.324-2.682Zm2.592 0c0 .636.054 1.224.162 1.764a4.7 4.7 0 0 0 .486 1.368c.228.384.516.684.864.9.348.216.762.324 1.242.324.876 0 1.554-.342 2.034-1.026.48-.684.72-1.794.72-3.33 0-.612-.054-1.182-.162-1.71a4.595 4.595 0 0 0-.468-1.386 2.411 2.411 0 0 0-.846-.918c-.348-.228-.774-.342-1.278-.342-.876 0-1.554.354-2.034 1.062-.48.696-.72 1.794-.72 3.294ZM190.215 59.596h-2.682c-.048 1.14-.102 2.178-.162 3.114-.06.936-.144 1.782-.252 2.538a13.103 13.103 0 0 1-.396 1.98 5.902 5.902 0 0 1-.648 1.494 2.72 2.72 0 0 1-.576.684c-.204.18-.42.324-.648.432a2.51 2.51 0 0 1-.684.216c-.216.048-.42.072-.612.072-.276 0-.51-.024-.702-.072a2.38 2.38 0 0 1-.54-.18l.27-2.124a1.421 1.421 0 0 0 .432.072c.192 0 .378-.048.558-.144.192-.096.354-.258.486-.486.18-.264.336-.648.468-1.152.132-.516.246-1.17.342-1.962.108-.792.192-1.734.252-2.826.06-1.104.102-2.388.126-3.852h7.434V70h-2.466V59.596ZM194.842 57.4h2.466v4.518c.06-.012.156-.024.288-.036.144-.024.294-.042.45-.054l.504-.036c.168-.012.324-.018.468-.018.588 0 1.158.06 1.71.18s1.038.336 1.458.648c.432.3.774.714 1.026 1.242.252.516.378 1.176.378 1.98 0 1.44-.45 2.526-1.35 3.258-.888.732-2.166 1.098-3.834 1.098-.168 0-.396-.006-.684-.018-.276 0-.582-.012-.918-.036a32.422 32.422 0 0 1-1.026-.09 6.89 6.89 0 0 1-.936-.162V57.4Zm3.69 10.584c.336 0 .654-.03.954-.09.3-.072.564-.186.792-.342.228-.168.402-.384.522-.648.132-.264.198-.588.198-.972 0-.408-.072-.738-.216-.99a1.494 1.494 0 0 0-.54-.612 1.925 1.925 0 0 0-.774-.288 5.919 5.919 0 0 0-.936-.072c-.084 0-.186.006-.306.018l-.36.036c-.12.012-.234.03-.342.054a1.974 1.974 0 0 0-.216.036v3.762c.132.036.306.066.522.09.228.012.462.018.702.018ZM205.09 70V57.4h2.466v10.404h2.97V57.4h2.466v10.404h2.97V57.4h2.466V70H205.09ZM220.594 57.4h7.47v2.196h-5.004v2.934h4.554v2.196h-4.554v3.078h5.094V70h-7.56V57.4ZM237.324 59.596h-4.86V70h-2.466V57.4h7.326v2.196ZM237.459 63.7c0-2.1.462-3.714 1.386-4.842.924-1.14 2.244-1.71 3.96-1.71.9 0 1.686.156 2.358.468.672.312 1.23.756 1.674 1.332.444.576.774 1.266.99 2.07.216.804.324 1.698.324 2.682 0 2.1-.468 3.72-1.404 4.86-.924 1.128-2.238 1.692-3.942 1.692-.912 0-1.704-.156-2.376-.468a4.442 4.442 0 0 1-1.674-1.332c-.432-.576-.756-1.266-.972-2.07-.216-.804-.324-1.698-.324-2.682Zm2.592 0c0 .636.054 1.224.162 1.764a4.7 4.7 0 0 0 .486 1.368c.228.384.516.684.864.9.348.216.762.324 1.242.324.876 0 1.554-.342 2.034-1.026.48-.684.72-1.794.72-3.33 0-.612-.054-1.182-.162-1.71a4.595 4.595 0 0 0-.468-1.386 2.411 2.411 0 0 0-.846-.918c-.348-.228-.774-.342-1.278-.342-.876 0-1.554.354-2.034 1.062-.48.696-.72 1.794-.72 3.294ZM250.634 57.4h2.412v5.922l-.468 2.934h-1.476l-.468-2.934V57.4Zm-.252 11.412c0-.42.132-.75.396-.99.264-.252.612-.378 1.044-.378.456 0 .816.126 1.08.378.264.24.396.57.396.99 0 .42-.132.756-.396 1.008s-.624.378-1.08.378c-.432 0-.78-.126-1.044-.378s-.396-.588-.396-1.008Z" fill="#000"/></svg>